<?xml version="1.0" encoding="UTF-8" ?>
<!DOCTYPE svg PUBLIC "-//W3C//DTD SVG 1.1//EN" "http://www.w3.org/Graphics/SVG/1.1/DTD/svg11.dtd">
<svg width="572pt" height="135pt" viewBox="0 0 572 135" version="1.1" xmlns="http://www.w3.org/2000/svg">
<path fill="#ffffff" d=" M 0.00 0.00 L 558.24 0.00 C 552.46 1.78 548.26 8.00 550.09 14.03 C 551.46 20.28 558.85 23.70 564.68 21.48 C 568.62 20.33 571.00 16.61 572.00 12.83 L 572.00 135.00 L 503.86 135.00 C 513.18 134.32 523.08 131.66 529.63 124.58 C 536.00 117.87 537.34 107.62 534.89 98.95 C 532.99 92.34 527.46 87.40 521.29 84.76 C 511.90 80.42 501.10 80.67 491.77 76.17 C 488.86 74.74 485.72 72.47 485.46 68.96 C 485.07 64.86 487.86 61.14 491.38 59.33 C 497.87 55.92 506.17 55.76 512.61 59.37 C 515.96 61.20 518.34 64.26 520.68 67.18 C 524.84 64.38 529.28 61.97 533.17 58.78 C 529.46 50.74 521.38 45.38 512.90 43.51 C 502.99 41.36 492.21 42.40 483.24 47.28 C 477.14 50.57 472.08 56.24 470.59 63.13 C 469.18 70.62 470.25 79.41 476.32 84.66 C 483.38 90.87 493.02 92.41 501.85 94.52 C 506.95 95.75 512.48 96.80 516.50 100.44 C 521.04 104.65 520.19 112.67 515.35 116.31 C 509.59 120.73 501.71 121.40 494.78 120.11 C 487.93 118.82 482.65 113.92 478.19 108.89 C 474.14 112.02 470.07 115.13 466.06 118.31 C 470.19 124.01 475.40 129.19 482.05 131.83 C 486.55 133.68 491.39 134.57 496.23 135.00 L 443.80 135.00 C 448.49 134.58 453.06 133.36 457.55 131.95 C 457.47 127.22 457.27 122.49 457.10 117.76 C 450.70 120.17 443.22 122.24 436.66 119.26 C 431.94 116.77 431.34 110.83 431.20 106.06 C 431.10 89.98 431.18 73.89 431.17 57.80 C 439.71 57.77 448.26 57.80 456.81 57.78 C 456.84 53.41 456.84 49.04 456.83 44.67 C 448.28 44.62 439.72 44.64 431.17 44.65 C 431.14 36.38 431.17 28.11 431.15 19.84 C 426.00 19.83 420.86 19.82 415.72 19.83 C 415.68 28.11 415.71 36.38 415.69 44.65 C 409.35 44.64 403.00 44.64 396.66 44.65 C 396.65 49.03 396.65 53.41 396.68 57.79 C 403.02 57.77 409.35 57.78 415.69 57.82 C 415.70 72.86 415.71 87.90 415.69 102.94 C 415.71 110.83 415.50 119.33 419.65 126.36 C 423.06 132.13 429.94 134.35 436.25 135.00 L 347.59 135.00 C 357.07 133.53 365.76 128.44 371.49 120.72 C 371.61 124.72 371.91 128.71 372.45 132.68 C 377.45 132.73 382.45 132.72 387.45 132.69 C 386.73 127.83 386.16 122.95 386.15 118.04 C 386.08 104.68 386.21 91.32 386.10 77.96 C 385.85 68.66 384.00 58.59 377.24 51.70 C 370.49 44.73 360.34 42.66 350.99 42.47 C 337.43 42.01 323.26 46.40 313.68 56.33 C 316.89 59.64 320.12 62.94 323.29 66.29 C 332.24 58.77 344.47 55.15 356.02 57.35 C 360.81 58.21 365.51 60.73 368.06 65.01 C 370.45 68.77 370.60 73.36 370.82 77.68 C 354.37 77.77 336.58 77.17 321.96 85.91 C 308.59 93.69 305.81 114.44 316.52 125.51 C 322.44 131.61 331.01 134.18 339.27 135.00 L 0.00 135.00 L 0.00 86.29 C 15.43 86.28 30.87 86.32 46.30 86.27 C 46.35 73.00 46.30 59.74 46.33 46.48 C 30.89 46.28 15.44 46.51 0.00 46.36 L 0.00 0.00 Z" />
<path fill="#414142" d=" M 558.24 0.00 L 563.67 0.00 C 567.69 1.65 570.88 4.97 572.00 9.22 L 572.00 12.83 C 571.00 16.61 568.62 20.33 564.68 21.48 C 558.85 23.70 551.46 20.28 550.09 14.03 C 548.26 8.00 552.46 1.78 558.24 0.00 Z" />
<path fill="#ffffff" d=" M 563.67 0.00 L 572.00 0.00 L 572.00 9.22 C 570.88 4.97 567.69 1.65 563.67 0.00 Z" />
<path fill="#3178bd" d=" M 46.67 1.00 C 60.24 1.00 73.82 1.00 87.39 1.00 C 87.48 16.14 87.33 31.28 87.48 46.42 C 102.12 46.43 116.77 46.32 131.42 46.48 C 131.35 59.75 131.45 73.01 131.36 86.28 C 116.84 86.30 102.31 86.30 87.78 86.28 C 87.66 101.60 87.73 116.92 87.74 132.24 C 74.11 132.40 60.48 132.33 46.84 132.28 C 46.82 122.53 46.86 112.77 46.81 103.02 C 46.97 101.10 46.49 98.60 48.33 97.34 C 61.31 86.85 74.72 76.90 87.55 66.22 C 76.40 57.43 65.23 48.68 54.07 39.90 C 51.66 37.95 49.02 36.27 46.91 33.98 C 46.28 23.02 46.81 11.99 46.67 1.00 Z" />
<path fill="#414142" d=" M 415.72 19.83 C 420.86 19.82 426.00 19.83 431.15 19.84 C 431.17 28.11 431.14 36.38 431.17 44.65 C 439.72 44.64 448.28 44.62 456.83 44.67 C 456.84 49.04 456.84 53.41 456.81 57.78 C 448.26 57.80 439.71 57.77 431.17 57.80 C 431.18 73.89 431.10 89.98 431.20 106.06 C 431.34 110.83 431.94 116.77 436.66 119.26 C 443.22 122.24 450.70 120.17 457.10 117.76 C 457.27 122.49 457.47 127.22 457.55 131.95 C 453.06 133.36 448.49 134.58 443.80 135.00 L 436.25 135.00 C 429.94 134.35 423.06 132.13 419.65 126.36 C 415.50 119.33 415.71 110.83 415.69 102.94 C 415.71 87.90 415.70 72.86 415.69 57.82 C 409.35 57.78 403.02 57.77 396.68 57.79 C 396.65 53.41 396.65 49.03 396.66 44.65 C 403.00 44.64 409.35 44.64 415.69 44.65 C 415.71 36.38 415.68 28.11 415.72 19.83 Z" />
<path fill="#414142" d=" M 313.68 56.33 C 323.26 46.40 337.43 42.01 350.99 42.47 C 360.34 42.66 370.49 44.73 377.24 51.70 C 384.00 58.59 385.85 68.66 386.10 77.96 C 386.21 91.32 386.08 104.68 386.15 118.04 C 386.16 122.95 386.73 127.83 387.45 132.69 C 382.45 132.72 377.45 132.73 372.45 132.68 C 371.91 128.71 371.61 124.72 371.49 120.72 C 365.76 128.44 357.07 133.53 347.59 135.00 L 339.27 135.00 C 331.01 134.18 322.44 131.61 316.52 125.51 C 305.81 114.44 308.59 93.69 321.96 85.91 C 336.58 77.17 354.37 77.77 370.82 77.68 C 370.60 73.36 370.45 68.77 368.06 65.01 C 365.51 60.73 360.81 58.21 356.02 57.35 C 344.47 55.15 332.24 58.77 323.29 66.29 C 320.12 62.94 316.89 59.64 313.68 56.33 Z" />
<path fill="#414142" d=" M 483.24 47.28 C 492.21 42.40 502.99 41.36 512.90 43.51 C 521.38 45.38 529.46 50.74 533.17 58.78 C 529.28 61.97 524.84 64.38 520.68 67.18 C 518.34 64.26 515.96 61.20 512.61 59.37 C 506.17 55.76 497.87 55.92 491.38 59.33 C 487.86 61.14 485.07 64.86 485.46 68.96 C 485.72 72.47 488.86 74.74 491.77 76.17 C 501.10 80.67 511.90 80.42 521.29 84.76 C 527.46 87.40 532.99 92.34 534.89 98.95 C 537.34 107.62 536.00 117.87 529.63 124.58 C 523.08 131.66 513.18 134.32 503.86 135.00 L 496.23 135.00 C 491.39 134.57 486.55 133.68 482.05 131.83 C 475.40 129.19 470.19 124.01 466.06 118.31 C 470.07 115.13 474.14 112.02 478.19 108.89 C 482.65 113.92 487.93 118.82 494.78 120.11 C 501.71 121.40 509.59 120.73 515.35 116.31 C 520.19 112.67 521.04 104.65 516.50 100.44 C 512.48 96.80 506.95 95.75 501.85 94.52 C 493.02 92.41 483.38 90.87 476.32 84.66 C 470.25 79.41 469.18 70.62 470.59 63.13 C 472.08 56.24 477.14 50.57 483.24 47.28 Z" />
<path fill="#414142" d=" M 168.54 44.67 C 174.18 44.62 179.82 44.66 185.46 44.63 C 192.29 66.62 198.30 88.88 205.47 110.76 C 213.13 88.83 220.13 66.67 227.92 44.80 C 233.20 44.42 238.52 44.71 243.81 44.69 C 251.24 66.74 258.83 88.73 266.39 110.74 C 267.19 108.88 267.75 106.94 268.44 105.04 C 274.26 84.90 280.36 64.84 286.15 44.69 C 291.70 44.62 297.25 44.62 302.80 44.67 C 293.41 74.03 283.83 103.33 274.40 132.68 C 269.38 132.73 264.37 132.72 259.35 132.70 C 251.05 110.55 243.02 88.30 234.63 66.19 C 227.31 88.35 220.12 110.55 212.75 132.70 C 207.56 132.72 202.37 132.73 197.18 132.68 C 187.60 103.36 178.05 74.02 168.54 44.67 Z" />
<path fill="#414142" d=" M 553.16 44.68 C 558.27 44.63 563.38 44.63 568.49 44.66 C 568.48 74.02 568.56 103.37 568.45 132.73 C 563.36 132.70 558.27 132.72 553.19 132.70 C 553.13 103.36 553.18 74.02 553.16 44.68 Z" />
<path fill="#3178bd" d=" M 0.00 46.36 C 15.44 46.51 30.89 46.28 46.33 46.48 C 46.30 59.74 46.35 73.00 46.30 86.27 C 30.87 86.32 15.43 86.28 0.00 86.29 L 0.00 46.36 Z" />
<path fill="#ffffff" d=" M 343.56 91.88 C 352.53 90.31 361.67 90.83 370.73 90.82 C 371.08 99.21 369.67 108.38 363.57 114.63 C 357.30 121.40 347.22 122.87 338.52 121.17 C 334.52 120.30 330.35 118.39 328.34 114.63 C 325.52 109.45 325.87 102.33 330.10 98.00 C 333.68 94.42 338.70 92.83 343.56 91.88 Z" />
</svg>
